HIERARCHY
ROOT hip
{
  OFFSET 0 0 0
  CHANNELS 6 Xposition Yposition Zposition Zrotation Yrotation Xrotation
  JOINT abdomen
  {
    OFFSET 0 20.6881 -0.73152
    CHANNELS 3 Zrotation Xrotation Yrotation
    JOINT chest
    {
      OFFSET 0 11.7043 -0.48768
      CHANNELS 3 Zrotation Xrotation Yrotation
      JOINT neck
      {
        OFFSET 0 22.1894 -2.19456
        CHANNELS 3 Zrotation Xrotation Yrotation
        JOINT head
        {
          OFFSET -0.24384 7.07133 1.2192
          CHANNELS 3 Zrotation Xrotation Yrotation
          JOINT leftEye
          {
            OFFSET 4.14528 8.04674 8.04672
            CHANNELS 3 Zrotation Xrotation Yrotation
            End Site
            {
              OFFSET 1 0 0
            }
          }
          JOINT rightEye
          {
            OFFSET -3.6576 8.04674 8.04672
            CHANNELS 3 Zrotation Xrotation Yrotation
            End Site
            {
              OFFSET 1 0 0
            }
          }
        }
      }
      JOINT rCollar
      {
        OFFSET -2.68224 19.2634 -4.8768
        CHANNELS 3 Zrotation Xrotation Yrotation
        JOINT rShldr
        {
          OFFSET -8.77824 -1.95073 1.46304
          CHANNELS 3 Zrotation Xrotation Yrotation
          JOINT rForeArm
          {
            OFFSET -28.1742 -1.7115 0.48768
            CHANNELS 3 Zrotation Xrotation Yrotation
            JOINT rHand
            {
              OFFSET -22.5879 0.773209 7.07136
              CHANNELS 3 Zrotation Xrotation Yrotation
              JOINT rThumb1
              {
                OFFSET -1.2192 -0.487915 3.41376
                CHANNELS 3 Zrotation Xrotation Yrotation
                JOINT rThumb2
                {
                  OFFSET -3.37035 -0.52449 3.41376
                  CHANNELS 3 Zrotation Xrotation Yrotation
                  End Site
                  {
                    OFFSET -1.78271 -1.18214 1.43049
                  }
                }
              }
              JOINT rIndex1
              {
                OFFSET -7.75947 0.938293 5.60832
                CHANNELS 3 Zrotation Xrotation Yrotation
                JOINT rIndex2
                {
                  OFFSET -2.54057 -0.884171 1.56538
                  CHANNELS 3 Zrotation Xrotation Yrotation
                  End Site
                  {
                    OFFSET -1.62519 -0.234802 1.16502
                  }
                }
              }
              JOINT rMid1
              {
                OFFSET -8.24714 1.18213 3.41376
                CHANNELS 3 Zrotation Xrotation Yrotation
                JOINT rMid2
                {
                  OFFSET -3.10165 -0.590103 1.0647
                  CHANNELS 3 Zrotation Xrotation Yrotation
                  End Site
                  {
                    OFFSET -2.48547 -0.328903 0.83742
                  }
                }
              }
              JOINT rRing1
              {
                OFFSET -8.82822 0.546677 1.51678
                CHANNELS 3 Zrotation Xrotation Yrotation
                JOINT rRing2
                {
                  OFFSET -2.60934 -0.819778 -0.0198488
                  CHANNELS 3 Zrotation Xrotation Yrotation
                  End Site
                  {
                    OFFSET -2.33842 -0.294052 0.168128
                  }
                }
              }
              JOINT rPinky1
              {
                OFFSET -8.27202 -0.0477905 -0.4584
                CHANNELS 3 Zrotation Xrotation Yrotation
                JOINT rPinky2
                {
                  OFFSET -1.82734 -0.647385 -0.700984
                  CHANNELS 3 Zrotation Xrotation Yrotation
                  End Site
                  {
                    OFFSET -1.69225 -0.51767 -0.607171
                  }
                }
              }
            }
          }
        }
      }
      JOINT lCollar
      {
        OFFSET 2.68224 19.2634 -4.8768
        CHANNELS 3 Zrotation Xrotation Yrotation
        JOINT lShldr
        {
          OFFSET 8.77824 -1.95073 1.46304
          CHANNELS 3 Zrotation Xrotation Yrotation
          JOINT lForeArm
          {
            OFFSET 28.1742 -1.7115 0.48768
            CHANNELS 3 Zrotation Xrotation Yrotation
            JOINT lHand
            {
              OFFSET 22.5879 0.773209 7.07136
              CHANNELS 3 Zrotation Xrotation Yrotation
              JOINT lThumb1
              {
                OFFSET 1.2192 -0.487915 3.41376
                CHANNELS 3 Zrotation Xrotation Yrotation
                JOINT lThumb2
                {
                  OFFSET 3.37035 -0.52449 3.41376
                  CHANNELS 3 Zrotation Xrotation Yrotation
                  End Site
                  {
                    OFFSET 1.78271 -1.18214 1.43049
                  }
                }
              }
              JOINT lIndex1
              {
                OFFSET 7.75947 0.938293 5.60832
                CHANNELS 3 Zrotation Xrotation Yrotation
                JOINT lIndex2
                {
                  OFFSET 2.54057 -0.884171 1.56538
                  CHANNELS 3 Zrotation Xrotation Yrotation
                  End Site
                  {
                    OFFSET 1.62519 -0.234802 1.16502
                  }
                }
              }
              JOINT lMid1
              {
                OFFSET 8.24714 1.18213 3.41376
                CHANNELS 3 Zrotation Xrotation Yrotation
                JOINT lMid2
                {
                  OFFSET 3.10165 -0.590103 1.0647
                  CHANNELS 3 Zrotation Xrotation Yrotation
                  End Site
                  {
                    OFFSET 2.48547 -0.328903 0.83742
                  }
                }
              }
              JOINT lRing1
              {
                OFFSET 8.82822 0.546677 1.51678
                CHANNELS 3 Zrotation Xrotation Yrotation
                JOINT lRing2
                {
                  OFFSET 2.60934 -0.819778 -0.0198488
                  CHANNELS 3 Zrotation Xrotation Yrotation
                  End Site
                  {
                    OFFSET 2.33842 -0.294052 0.168128
                  }
                }
              }
              JOINT lPinky1
              {
                OFFSET 8.27202 -0.0477905 -0.4584
                CHANNELS 3 Zrotation Xrotation Yrotation
                JOINT lPinky2
                {
                  OFFSET 1.82734 -0.647385 -0.700984
                  CHANNELS 3 Zrotation Xrotation Yrotation
                  End Site
                  {
                    OFFSET 1.69225 -0.51767 -0.607171
                  }
                }
              }
            }
          }
        }
      }
    }
  }
  JOINT rButtock
  {
    OFFSET -8.77824 4.35084 1.2192
    CHANNELS 3 Zrotation Xrotation Yrotation
    JOINT rThigh
    {
      OFFSET 0 -1.70687 -2.19456
      CHANNELS 3 Zrotation Xrotation Yrotation
      JOINT rShin
      {
        OFFSET 0 -36.8199 0.73152
        CHANNELS 3 Zrotation Xrotation Yrotation
        JOINT rFoot
        {
          OFFSET 0.73152 -45.1104 -5.12064
          CHANNELS 3 Zrotation Xrotation Yrotation
          End Site
          {
            OFFSET -1.1221 -3.69964 12.103
          }
        }
      }
    }
  }
  JOINT lButtock
  {
    OFFSET 8.77824 4.35084 1.2192
    CHANNELS 3 Zrotation Xrotation Yrotation
    JOINT lThigh
    {
      OFFSET 0 -1.70687 -2.19456
      CHANNELS 3 Zrotation Xrotation Yrotation
      JOINT lShin
      {
        OFFSET 0 -36.8199 0.73152
        CHANNELS 3 Zrotation Xrotation Yrotation
        JOINT lFoot
        {
          OFFSET -0.73152 -45.1104 -5.12064
          CHANNELS 3 Zrotation Xrotation Yrotation
          End Site
          {
            OFFSET 1.1221 -3.69964 12.103
          }
        }
      }
    }
  }
}
MOTION
Frames:	4
Frame Time:	0.03333
0.44100757595151663 58.407344818115234 -6.031475979834795 -43.76862198114395 5.477693751454353 -5.2880313992500305 -0.8128293603658676 18.87963742017746 8.09884563088417 -9.112059473991394 -7.647749707102776 1.8276019021868706 -5.4299521073699 13.683251738548279 0.963037759065628 0.22771820425987244 -20.36518156528473 11.099050641059875 -0.9977143630385399 -3.8701630756258965 -0.4367752745747566 -2.166457772254944 2.921069450676441 -2.2721435129642487 -2.8780116140842438 -0.7045770809054375 -3.2791218906641006 62.65597343444824 42.429558634757996 5.22147674113512 -15.391319990158081 -30.489501357078552 67.90333449840546 -0.660516768693924 -6.107263192534447 12.356840372085571 -2.039537988603115 1.7394346743822098 3.9836329221725464 -3.3002328872680664 6.569808796048164 7.68244206905365 -9.418196752667427 -2.5715558230876923 -0.11579800397157669 -1.32064713165164 -0.5221885442733765 9.206962063908577 5.070095211267471 6.857650056481361 -1.9200244545936584 -6.041268780827522 -4.8256876319646835 -1.6327871941030025 0.8114862442016602 -3.1222254037857056 -8.563272804021835 3.408282995223999 -1.6100750863552094 -0.9181640669703484 0.7700193766504526 -0.27410298585891724 5.465237572789192 1.092345044016838 -0.07797583937644958 6.958786100149155 -5.228636562824249 -6.827386021614075 -5.400062240660191 -59.940531849861145 26.458248496055603 -27.878966331481934 20.724214017391205 -36.54210984706879 -69.34667944908142 -6.485456675291061 -7.579272240400314 -2.2768286615610123 5.326207280158997 -14.14775401353836 -0.7480962574481964 -4.9576908722519875 -0.6942126899957657 3.156980127096176 0.05858480930328369 -4.951247200369835 2.2825052216649055 -4.980628788471222 4.475893713533878 -4.367486871778965 0.6018967553973198 -2.868438810110092 -2.2973086684942245 -7.2236716747283936 3.000890649855137 -0.23906026035547256 -5.35453911870718 0.8184733986854553 -1.4872527122497559 -11.233358234167099 -4.346154592931271 4.900879338383675 -10.277614742517471 -10.373154357075691 0.8375382050871849 -13.174840360879898 -5.962458774447441 -1.743762418627739 3.2780275493860245 -1.6554909199476242 3.106950893998146 -23.54770302772522 -42.13180124759674 -29.54087108373642 -36.2751629948616 77.79334723949432 35.234937965869904 -9.084016308188438 -18.448369055986404 -20.34549281001091 -0.7605968602001667 -0.9986346960067749 6.818540096282959 57.85757660865784 -40.58784395456314 59.86746847629547 36.587940752506256 66.32540166378021 -42.202962934970856 1.1787938140332699 -12.298399060964584 14.989809393882751
0.44838772527873516 58.41812515258789 -6.1585374511778355 -43.80794316530228 5.461632683873177 -5.1966217160224915 -0.8265113085508347 18.888005912303925 8.06503638625145 -9.121854901313782 -7.636253759264946 1.8321187421679497 -5.408376418054104 13.712090849876404 0.9356148540973663 0.2185504138469696 -20.3651225566864 11.092345118522644 -0.9920495375990868 -3.8690687343478203 -0.4785587266087532 -2.1480149030685425 2.9104264453053474 -2.253604084253311 -2.8906501829624176 -0.7009534165263176 -3.293090835213661 62.628931403160095 42.41973638534546 5.184129662811756 -15.393280684947968 -30.481910705566406 67.90409088134766 -0.6805850565433502 -6.100440993905067 12.354533672332764 -2.0317917689681053 1.7140475660562515 3.9928650856018066 -3.3146417140960693 6.559889987111092 7.661113142967224 -9.439375475049019 -2.549261301755905 -0.11139918118715286 -1.324289571493864 -0.5224889516830444 9.191705659031868 5.097775608301163 6.834491863846779 -1.8978586792945862 -6.049369052052498 -4.822254404425621 -1.6271116398274899 0.8338022232055664 -3.1394049525260925 -8.53620395064354 3.3900386095046997 -1.63902148604393 -0.9208516404032707 0.7486153487116098 -0.2767851948738098 5.452330783009529 1.1144062131643295 -0.07070168852806091 6.958196014165878 -5.2318766713142395 -6.826409697532654 -5.377445854246616 -59.89688158035278 26.463398337364197 -27.92400598526001 20.70437639951706 -36.535189747810364 -69.35450077056885 -6.470844000577927 -7.637755125761032 -2.262779250741005 5.301761627197266 -14.127379953861237 -0.7260565459728241 -4.95064202696085 -0.692780390381813 3.1511221826076508 0.06766676902770996 -4.955538734793663 2.2775645926594734 -4.975796788930893 4.510928727686405 -4.36411801725626 0.6236011907458305 -2.8686507046222687 -2.2719886153936386 -7.199349403381348 3.0029935017228127 -0.26176784187555313 -5.350360237061977 0.8395287394523621 -1.4859330654144287 -11.21437892317772 -4.329251311719418 4.926936998963356 -10.283585339784622 -10.345522239804268 0.8568796142935753 -13.19250538945198 -5.943683311343193 -1.7637931555509567 3.280162587761879 -1.6505985707044601 3.1123877316713333 -23.55567455291748 -42.15130627155304 -29.53863948583603 -36.23405009508133 77.80629694461823 35.156499445438385 -9.10842441022396 -18.466575890779495 -20.371617525815964 -0.7763897068798542 -0.9934097528457642 6.812789440155029 57.80951142311096 -40.605686008930206 59.837894439697266 36.517334282398224 66.30370795726776 -42.140853703022 1.173445489257574 -12.340981811285019 14.99633252620697
0.4557559238746762 58.416404724121094 -6.2856696136295795 -43.80056172609329 5.464143231511116 -5.21289736032486 -0.8242770284414291 18.884701430797577 8.070846050977707 -9.120256304740906 -7.6373159140348434 1.8334196135401726 -5.41096206754446 13.709784150123596 0.9400458633899689 0.21914586424827576 -20.367107391357422 11.09519898891449 -0.9903329238295555 -3.8684625551104546 -0.47308702021837234 -2.1502357721328735 2.9146911576390266 -2.2559858858585358 -2.8875602781772614 -0.7025251910090446 -3.2902798801660538 62.633056640625 42.42168366909027 5.188944227993488 -15.390729904174805 -30.481486916542053 67.90417671203613 -0.6767494976520538 -6.099471375346184 12.355520725250244 -2.033819518983364 1.7183230072259903 3.9917922019958496 -3.315728008747101 6.559935584664345 7.66520082950592 -9.436167553067207 -2.551036924123764 -0.11069107800722122 -1.322690974920988 -0.5201822519302368 9.193309620022774 5.090458542108536 6.8369970470666885 -1.9004228711128235 -6.050463393330574 -4.823477491736412 -1.628779973834753 0.8324074745178223 -3.1347593665122986 -8.537899106740952 3.393107056617737 -1.6365323960781097 -0.9182659909129143 0.7549453619867563 -0.27810484170913696 5.453081801533699 1.1102461069822311 -0.0721178948879242 6.957359164953232 -5.23112028837204 -6.825197339057922 -5.379661358892918 -59.901607632637024 26.462904810905457 -27.917933464050293 20.70581942796707 -36.53729259967804 -69.35505867004395 -6.474132388830185 -7.628667801618576 -2.2669313102960587 5.304358005523682 -14.128635227680206 -0.7287736237049103 -4.951114095747471 -0.6950495392084122 3.150843232870102 0.06838560104370117 -4.953441247344017 2.2764595225453377 -4.9749599397182465 4.506760574877262 -4.365845359861851 0.6205059215426445 -2.868516594171524 -2.2754862159490585 -7.203458547592163 3.0025214329361916 -0.2598956599831581 -5.349217616021633 0.8354088664054871 -1.4870166778564453 -11.21958240866661 -4.333027862012386 4.926143065094948 -10.2847521007061 -10.348301008343697 0.8559462055563927 -13.18878784775734 -5.946065112948418 -1.7613577097654343 3.2815734297037125 -1.6511671990156174 3.1110117584466934 -23.55615735054016 -42.14810907840729 -29.54113930463791 -36.242182552814484 77.80426383018494 35.166970789432526 -9.104781970381737 -18.465368896722794 -20.366843193769455 -0.7740186341106892 -0.992540717124939 6.8130576610565186 57.81551957130432 -40.605208575725555 59.845179319381714 36.52717262506485 66.3096410036087 -42.148519456386566 1.171723511070013 -12.334737628698349 14.99834954738617
0.4630800895392895 58.40935516357422 -6.413099262863398 -43.77469450235367 5.474936440587044 -5.272217094898224 -0.8152487128973007 18.879465758800507 8.09286966919899 -9.113711714744568 -7.645276710391045 1.8298469111323357 -5.424716435372829 13.690016269683838 0.9578235447406769 0.22532030940055847 -20.366318821907043 11.099254488945007 -0.9951930865645409 -3.868998996913433 -0.4456104710698128 -2.1626919507980347 2.920994348824024 -2.268517166376114 -2.879583388566971 -0.7047165557742119 -3.281439319252968 62.65103280544281 42.42821753025055 5.213920958340168 -15.389842092990875 -30.486760139465332 67.90378510951996 -0.6634725630283356 -6.104727163910866 12.35662579536438 -2.038561664521694 1.73493392765522 3.985993266105652 -3.3053478598594666 6.5670595318078995 7.678874731063843 -9.421790912747383 -2.5663040578365326 -0.11461783200502396 -1.3202179782092571 -0.5207616090774536 9.203738048672676 5.073088556528091 6.852489486336708 -1.9156041741371155 -6.0443104058504105 -4.825290665030479 -1.6320308111608028 0.8167219161987305 -3.124017119407654 -8.556036204099655 3.4051448106765747 -1.616523116827011 -0.9172950312495232 0.7678521517664194 -0.2755245566368103 5.461611226201057 1.0959472507238388 -0.07711753249168396 6.957753449678421 -5.229065716266632 -6.82624876499176 -5.39457980543375 -59.93119239807129 26.459128260612488 -27.888128757476807 20.71887105703354 -36.5412300825119 -69.34938311576843 -6.483155339956284 -7.590398043394089 -2.2751764208078384 5.32062292098999 -14.142132103443146 -0.743311196565628 -4.955394901335239 -0.6952802091836929 3.1551776826381683 0.06178736686706543 -4.950737580657005 2.2802146151661873 -4.978904128074646 4.482964016497135 -4.367132820188999 0.6059093400835991 -2.868639975786209 -2.2920944541692734 -7.218983173370361 3.001040853559971 -0.24415377527475357 -5.352066121995449 0.8218047022819519 -1.4872634410858154 -11.231040805578232 -4.3438103422522545 4.90774042904377 -10.279891937971115 -10.366582944989204 0.8425888046622276 -13.17730262875557 -5.9584891051054 -1.7479252070188522 3.2791272550821304 -1.654375120997429 3.107481971383095 -23.550385236740112 -42.13477313518524 -29.54165428876877 -36.268382370471954 77.79536962509155 35.21916925907135 -9.08922515809536 -18.452676683664322 -20.349784344434738 -0.7637189514935017 -0.9964460134506226 6.816823482513428 57.84720182418823 -40.59258610010147 59.863638281822205 36.57389938831329 66.32289111614227 -42.19006150960922 1.175993587821722 -12.306665629148483 14.9931138753891
